<?xml version="1.0" standalone="no"?>
<!DOCTYPE svg PUBLIC "-//W3C//DTD SVG 20010904//EN"
 "http://www.w3.org/TR/2001/REC-SVG-20010904/DTD/svg10.dtd">
<svg version="1.0" xmlns="http://www.w3.org/2000/svg"
 width="305.000000pt" height="305.000000pt" viewBox="0 0 305.000000 305.000000"
 preserveAspectRatio="xMidYMid meet">
<metadata>
Created by potrace 1.14, written by Peter Selinger 2001-2017
</metadata>
<g transform="translate(0.000000,305.000000) scale(0.100000,-0.100000)"
fill="#000000" stroke="none">
<path d="M346 2944 c-9 -8 -16 -11 -16 -5 0 6 -5 11 -11 11 -5 0 -7 -4 -4 -10
3 -5 -5 -12 -19 -16 -13 -3 -27 -12 -30 -20 -3 -8 -10 -14 -16 -14 -18 0 -37
-24 -32 -39 3 -8 0 -11 -7 -7 -7 5 -16 -4 -22 -23 -6 -17 -14 -29 -18 -26 -4
2 -8 -2 -8 -10 0 -8 4 -12 9 -9 4 3 5 -2 2 -10 -3 -9 -9 -14 -13 -12 -9 6 -6
-48 4 -64 5 -9 4 -11 -3 -6 -14 8 -12 -20 2 -43 7 -11 6 -12 -5 -6 -12 8 -12
6 -1 -8 8 -9 10 -22 6 -28 -4 -8 -3 -9 4 -5 16 10 15 -7 0 -23 -11 -10 -10
-12 1 -9 8 2 25 -13 38 -32 13 -19 33 -39 44 -44 10 -5 19 -13 19 -18 0 -5 5
-6 10 -3 6 3 10 -1 10 -9 0 -11 10 -16 31 -16 20 0 28 -4 23 -11 -5 -8 -2 -9
12 -1 15 8 24 6 43 -11 13 -12 21 -16 16 -8 -6 11 -3 13 13 9 12 -4 20 -3 17
2 -6 10 14 18 43 15 12 -1 22 3 22 8 0 5 7 4 15 -3 13 -11 14 -10 9 4 -6 16
-4 16 32 1 21 -8 44 -13 52 -10 13 5 13 3 1 -12 -9 -11 -10 -14 -1 -9 20 12
54 -3 47 -21 -4 -13 -3 -14 10 -3 8 7 15 8 15 3 0 -5 7 -10 15 -11 8 -1 22 -3
30 -4 8 -1 12 -5 9 -10 -3 -4 4 -8 15 -8 12 0 21 -4 21 -10 0 -5 7 -7 15 -4
10 4 15 0 15 -12 0 -15 2 -16 9 -5 6 9 10 9 12 2 2 -6 16 -12 31 -13 15 -1 24
-6 22 -10 -3 -4 5 -8 19 -8 13 0 33 -9 44 -19 15 -14 23 -17 32 -8 8 8 11 7
11 -5 0 -9 8 -15 17 -14 10 0 17 -4 16 -10 -1 -8 6 -10 19 -6 13 3 19 1 15 -5
-4 -6 6 -9 23 -8 16 1 29 -1 28 -4 -2 -22 6 -27 35 -24 24 3 29 2 17 -6 -12
-9 -10 -11 13 -11 15 0 30 -6 33 -14 3 -8 13 -12 25 -9 10 3 19 0 19 -6 0 -6
11 -11 24 -11 25 0 43 -15 29 -23 -5 -2 -3 -3 3 -1 6 1 17 -3 24 -9 10 -9 11
-9 6 1 -4 6 -2 12 3 12 6 0 11 -5 11 -11 0 -6 7 -9 15 -6 8 4 17 1 21 -5 5 -7
2 -8 -6 -3 -9 6 -11 4 -5 -4 4 -7 15 -11 24 -8 10 2 26 -2 36 -9 12 -9 14 -14
5 -14 -7 0 -10 -3 -7 -6 4 -4 13 -1 22 6 12 10 15 10 15 -3 0 -10 8 -14 25
-12 14 1 28 -2 31 -7 3 -4 11 -5 17 -2 7 4 9 4 5 -1 -9 -10 10 -35 26 -35 6 0
4 5 -4 10 -8 5 -10 10 -4 10 16 0 35 -25 26 -35 -4 -4 4 -2 17 5 15 8 21 8 17
1 -4 -7 1 -11 14 -11 11 0 23 -6 26 -14 3 -8 13 -12 25 -9 11 3 19 0 19 -7 0
-7 7 -10 15 -7 8 4 17 1 21 -5 5 -7 2 -8 -7 -3 -8 5 -11 4 -6 0 7 -8 20 -11
65 -17 6 -1 12 -5 12 -10 0 -4 7 -8 16 -8 9 0 12 -5 8 -12 -5 -7 -3 -8 7 -2
19 11 40 14 34 4 -8 -13 22 -19 35 -7 10 9 11 9 6 0 -4 -7 -2 -13 3 -13 6 0
11 8 11 17 0 15 2 15 13 2 6 -8 11 -12 10 -10 -2 2 12 18 30 34 17 17 25 27
17 23 -8 -4 -6 0 4 8 11 9 16 16 12 16 -5 0 -3 7 4 15 6 8 9 19 5 25 -3 5 1
13 9 16 9 3 16 15 16 25 0 10 5 19 10 19 6 0 10 9 10 20 0 11 5 20 10 20 7 0
7 6 0 20 -9 16 -8 18 5 14 11 -5 14 -2 8 12 -4 12 -3 15 5 10 8 -5 10 -1 5 10
-4 11 -2 15 4 11 6 -4 10 3 9 16 -1 14 4 21 13 19 12 -3 12 0 1 12 -9 12 -9
16 -1 16 7 0 9 5 6 10 -3 6 -1 10 4 10 6 0 11 9 11 19 0 11 5 23 10 26 5 3 10
18 10 32 0 18 4 24 15 19 13 -5 14 -2 4 15 -7 15 -7 19 0 15 6 -4 13 5 17 21
4 15 10 33 14 38 12 18 10 56 -3 48 -7 -4 -6 0 2 10 9 11 10 17 2 17 -6 0 -11
7 -11 15 0 17 -34 37 -45 27 -5 -4 -5 1 -2 10 4 12 1 16 -11 13 -10 -1 -35 5
-56 16 -45 22 -116 22 -108 0 3 -9 1 -12 -5 -8 -6 4 -21 -10 -34 -31 -25 -40
-26 -43 -28 -69 -1 -16 -3 -16 -12 -3 -9 12 -10 11 -6 -7 3 -13 1 -26 -4 -29
-5 -3 -7 -10 -4 -15 4 -5 -2 -9 -12 -10 -10 0 -13 -3 -7 -5 8 -3 7 -15 -4 -39
-9 -19 -20 -31 -26 -28 -6 4 -5 0 2 -9 10 -12 9 -18 -3 -28 -8 -7 -15 -21 -15
-31 0 -11 -5 -19 -11 -19 -5 0 -8 -4 -5 -9 3 -5 -2 -12 -11 -15 -9 -4 -20 -1
-24 5 -4 7 -14 9 -23 6 -8 -3 -18 -1 -22 5 -5 7 -2 8 6 3 9 -5 11 -4 6 3 -4 7
-18 12 -32 12 -17 0 -23 4 -18 12 5 7 3 8 -6 3 -7 -4 -16 -2 -20 6 -5 7 -17
14 -27 15 -41 6 -58 12 -56 22 1 5 -7 8 -17 5 -12 -3 -20 0 -20 6 0 7 -5 9
-10 6 -5 -3 -10 -2 -10 4 0 6 -7 7 -17 4 -11 -4 -14 -3 -9 5 4 7 3 12 -3 12
-5 0 -12 -6 -14 -12 -4 -9 -6 -8 -6 2 -1 9 -11 17 -23 17 -13 1 -24 7 -26 13
-2 5 -8 8 -13 4 -5 -3 -9 -1 -9 5 0 5 -9 8 -19 6 -14 -3 -18 1 -14 11 3 10 0
12 -10 8 -8 -3 -18 0 -22 6 -6 9 -10 9 -16 -1 -7 -11 -10 -9 -15 9 -4 12 -11
22 -16 22 -5 0 -6 -4 -3 -10 3 -6 -1 -7 -9 -4 -9 3 -16 10 -16 15 0 4 -6 6
-14 3 -8 -3 -17 0 -21 5 -3 6 -11 8 -17 5 -7 -4 -8 -2 -4 4 5 8 -2 12 -19 12
-15 0 -24 4 -20 10 4 6 -5 10 -20 10 -14 0 -24 4 -20 9 3 6 -4 8 -15 6 -12 -2
-23 2 -27 10 -3 8 -9 15 -15 15 -5 0 -6 -6 -3 -12 4 -7 1 -6 -7 3 -7 9 -19 14
-27 11 -9 -3 -12 0 -9 10 4 8 0 15 -8 15 -7 0 -11 -4 -8 -9 9 -13 -3 -9 -20 8
-9 8 -25 16 -36 17 -11 1 -20 4 -20 8 0 3 -18 12 -40 19 -22 7 -40 17 -40 22
0 5 -4 7 -9 3 -5 -3 -12 -1 -15 4 -5 8 -63 25 -78 22 -5 0 -8 5 -8 12 0 7 -8
13 -18 14 -35 3 -47 8 -57 28 -8 14 -8 22 -1 27 6 4 4 9 -6 13 -9 4 -14 13
-11 21 3 7 -3 17 -12 20 -13 5 -14 9 -3 15 10 7 9 9 -4 9 -9 0 -20 9 -23 20
-3 11 -13 20 -21 20 -13 0 -19 13 -15 34 1 5 -4 4 -13 -3 -11 -9 -16 -9 -22 0
-5 8 -3 9 6 4 8 -5 11 -4 7 3 -4 5 -17 8 -29 4 -14 -3 -19 -2 -14 6 4 7 1 12
-6 13 -7 1 -31 3 -53 6 -59 6 -58 6 -79 -3 -14 -5 -17 -4 -12 4 10 17 0 15
-18 -4z m137 -135 c10 -6 15 -14 12 -20 -4 -5 -1 -8 5 -7 7 2 17 -6 23 -17 7
-11 17 -23 22 -27 6 -4 6 -8 2 -8 -4 0 -3 -9 3 -20 8 -15 8 -20 -2 -21 -10 0
-10 -2 0 -6 10 -4 9 -10 -5 -26 -10 -11 -12 -17 -5 -13 20 12 14 -5 -10 -25
-11 -11 -17 -19 -13 -19 12 0 -60 -47 -84 -55 -12 -4 -21 -2 -21 4 0 6 -5 11
-11 11 -5 0 -7 -6 -3 -12 4 -7 -3 -4 -16 7 -14 12 -20 14 -15 5 7 -12 6 -13
-7 -3 -8 7 -19 9 -23 5 -5 -4 -5 1 -2 10 4 12 2 15 -9 11 -8 -3 -14 1 -14 10
0 9 -5 19 -12 23 -7 5 -8 3 -3 -6 5 -8 4 -11 -2 -7 -6 4 -9 18 -8 32 2 14 -1
27 -6 31 -5 3 -5 12 0 22 4 9 7 27 6 39 -1 12 3 21 9 20 6 -1 10 4 8 11 -1 6
2 12 8 12 5 0 9 6 7 13 -1 7 7 12 19 11 16 0 20 4 16 15 -5 14 -4 14 13 1 10
-8 16 -10 12 -3 -13 22 65 23 106 2z"/>
<path d="M2631 2920 c-8 -4 -21 -6 -29 -2 -11 4 -13 1 -7 -8 5 -8 3 -11 -6 -8
-8 3 -25 -7 -38 -21 -13 -14 -20 -19 -16 -11 4 10 1 9 -8 -2 -8 -10 -17 -15
-20 -11 -4 3 -7 -1 -7 -9 0 -9 -7 -19 -16 -22 -10 -4 -14 -12 -10 -23 4 -10 4
-14 0 -10 -10 9 -35 -13 -28 -25 3 -5 2 -14 -4 -21 -5 -7 -8 -29 -7 -49 1 -20
-1 -37 -4 -36 -20 2 -22 -4 -5 -18 10 -8 13 -13 7 -9 -9 4 -11 -2 -8 -22 3
-15 7 -38 8 -50 2 -12 7 -26 12 -30 4 -5 5 -1 0 7 -7 13 -6 13 8 0 17 -17 12
-74 -6 -63 -6 4 -8 0 -4 -10 3 -10 2 -17 -4 -17 -6 0 -8 -4 -5 -9 4 -5 1 -11
-4 -13 -6 -2 -12 -13 -13 -26 0 -12 -5 -22 -9 -22 -4 0 -7 -3 -6 -7 1 -5 -4
-18 -11 -31 -7 -13 -10 -31 -6 -40 3 -9 3 -13 -1 -9 -8 8 -34 -38 -34 -59 0
-8 -5 -14 -11 -14 -5 0 -7 -4 -4 -10 3 -5 1 -10 -4 -10 -6 0 -10 -3 -10 -7 1
-5 -2 -23 -6 -41 -6 -24 -10 -30 -16 -20 -6 9 -9 4 -9 -14 0 -16 -6 -28 -12
-28 -10 0 -9 -3 1 -9 11 -7 10 -11 -5 -20 -11 -6 -15 -11 -10 -11 5 0 3 -7 -4
-15 -7 -8 -9 -15 -4 -15 4 0 -1 -7 -12 -16 -10 -8 -13 -13 -6 -9 6 3 12 1 12
-4 0 -6 -5 -11 -11 -11 -5 0 -7 -4 -4 -10 3 -5 1 -10 -5 -10 -7 0 -9 -7 -6
-16 3 -8 2 -12 -4 -9 -6 3 -10 -3 -10 -14 0 -12 -4 -21 -9 -21 -6 0 -8 -9 -6
-21 3 -14 0 -19 -9 -16 -10 4 -12 -1 -8 -15 3 -13 1 -19 -5 -15 -5 3 -9 -4 -8
-16 2 -25 -15 -47 -30 -39 -5 2 -5 -1 2 -8 10 -11 9 -16 -5 -27 -9 -8 -11 -12
-5 -8 9 4 11 1 7 -9 -3 -9 -10 -16 -16 -16 -5 0 -6 -4 -3 -10 3 -5 1 -10 -5
-10 -6 0 -9 -4 -6 -9 3 -4 -3 -26 -13 -47 -11 -21 -17 -42 -14 -46 2 -5 -4 -8
-14 -8 -14 0 -15 -2 -5 -9 11 -7 11 -9 -2 -14 -9 -4 -13 -14 -11 -27 2 -11 0
-18 -6 -15 -5 4 -9 -3 -9 -14 0 -12 -5 -21 -12 -21 -6 0 -8 -3 -5 -7 4 -3 1
-13 -6 -21 -10 -13 -9 -14 2 -7 10 6 12 4 7 -4 -5 -7 -15 -10 -23 -6 -13 4
-14 3 -3 -10 8 -10 9 -15 2 -15 -6 0 -9 -7 -6 -15 4 -8 -1 -17 -10 -21 -13 -5
-14 -9 -5 -20 8 -10 8 -14 0 -14 -6 0 -13 -11 -17 -24 -3 -14 -12 -27 -21 -30
-8 -3 -11 -11 -8 -16 4 -6 1 -18 -7 -27 -9 -12 -9 -15 -1 -9 9 5 11 2 7 -8 -3
-9 -10 -13 -15 -10 -5 3 -10 -7 -10 -23 -4 -84 -3 -95 11 -106 13 -11 13 -10
0 8 -14 19 -14 19 3 6 9 -7 17 -20 17 -28 0 -8 5 -11 10 -8 6 3 10 1 10 -5 0
-6 5 -8 10 -5 6 3 10 0 10 -7 0 -9 3 -9 10 2 8 13 10 12 10 -4 0 -12 5 -16 15
-12 8 3 15 1 15 -4 0 -6 9 -10 21 -10 13 0 18 -4 13 -12 -5 -8 0 -7 11 2 10 8
16 10 12 4 -8 -14 9 -22 40 -19 12 1 22 -1 21 -4 0 -3 0 -13 1 -21 1 -13 2
-13 11 0 7 12 10 12 10 1 0 -7 6 -11 15 -7 8 3 15 1 15 -5 0 -6 7 -8 16 -5 8
3 12 2 9 -4 -5 -9 7 -12 31 -9 3 0 12 -8 21 -18 9 -11 12 -12 8 -3 -4 9 -1 8
8 -3 11 -14 16 -15 20 -5 4 10 6 10 6 1 1 -7 10 -13 21 -13 11 0 20 -4 20 -9
0 -5 7 -12 16 -15 10 -4 13 -2 8 7 -5 8 -2 7 9 -2 9 -7 17 -10 17 -7 0 4 7 0
16 -8 8 -9 21 -13 27 -9 7 4 8 0 3 -12 -5 -14 -4 -16 7 -7 10 9 17 8 27 -1 7
-6 10 -7 7 -2 -3 6 10 10 31 9 38 0 72 14 72 30 0 5 -8 3 -18 -5 -10 -8 -8 -5
3 6 12 12 20 26 17 33 -2 7 1 12 7 12 6 0 11 9 11 21 0 11 4 17 10 14 6 -4 7
1 3 11 -5 13 -3 15 8 9 12 -8 12 -6 0 8 -8 11 -9 17 -3 17 7 0 9 7 5 17 -5 12
-3 14 8 9 8 -4 6 -1 -3 7 -21 16 -24 32 -5 21 9 -6 9 -5 0 8 -7 8 -11 18 -8
21 3 4 2 5 -1 2 -4 -2 -15 5 -25 17 -11 11 -19 18 -19 13 0 -4 -7 -2 -15 5 -8
7 -15 9 -15 4 0 -5 -5 -1 -11 9 -7 12 -17 16 -31 11 -15 -4 -18 -3 -13 7 6 9
3 11 -8 6 -10 -3 -17 -2 -17 3 0 6 5 10 12 10 6 0 8 3 5 6 -4 4 -14 1 -24 -7
-9 -8 -14 -9 -10 -3 4 7 0 15 -9 18 -8 3 -12 2 -9 -4 3 -6 -1 -7 -9 -4 -9 3
-16 10 -16 15 0 5 -3 8 -7 8 -22 -4 -33 2 -27 13 5 9 2 9 -9 -1 -9 -7 -17 -10
-17 -5 0 10 -47 34 -66 34 -16 0 -27 32 -13 40 6 4 10 10 10 14 -1 3 0 8 0 11
1 3 3 10 4 15 1 6 3 15 4 21 0 5 6 7 13 3 7 -4 8 -3 4 5 -10 15 3 53 15 45 5
-3 9 -2 8 3 -4 22 2 43 17 57 12 12 12 16 2 16 -10 0 -10 2 1 9 8 5 10 14 6
22 -6 9 -3 11 9 6 10 -4 15 -3 11 4 -4 5 -1 17 7 26 11 14 11 16 -2 8 -8 -4
-4 4 10 20 14 16 18 24 10 20 -13 -8 -13 -7 -1 8 7 9 10 17 5 17 -4 0 1 7 12
16 10 8 13 12 6 9 -11 -6 -11 -3 -1 13 7 12 18 18 24 15 5 -3 5 -1 -1 6 -15
16 12 74 29 65 9 -5 8 -3 0 6 -10 11 -9 16 5 27 12 10 12 12 2 8 -13 -6 -13
-5 0 7 9 7 15 23 14 35 -1 12 3 20 7 17 5 -3 10 0 10 5 1 6 3 16 4 21 1 6 3
15 4 21 0 5 6 7 12 3 7 -4 9 0 5 14 -5 14 -1 25 14 35 14 10 17 17 11 22 -6 3
-9 11 -5 16 3 5 9 7 13 5 3 -3 8 4 9 15 4 43 6 49 14 49 4 0 7 3 6 8 -3 16 15
41 26 35 6 -3 6 0 -2 8 -10 11 -8 17 10 32 13 10 17 16 11 12 -15 -7 -18 11
-3 20 6 3 10 17 10 31 0 13 5 24 10 24 6 0 10 7 10 15 0 8 5 15 11 15 6 0 9 7
5 15 -3 8 -1 15 3 15 5 0 12 7 15 16 5 12 3 14 -7 8 -7 -5 -6 -2 3 6 9 9 14
22 12 29 -3 8 0 11 7 7 7 -5 9 -1 5 8 -3 9 -1 16 6 16 6 0 8 5 5 10 -3 6 0 13
9 16 9 3 12 12 9 21 -5 12 -3 14 8 7 21 -13 40 -14 32 -1 -4 6 0 8 10 4 10 -3
17 -2 17 4 0 6 6 7 13 3 7 -5 6 0 -3 11 -8 10 -10 16 -3 12 12 -8 96 67 86 77
-4 3 -1 6 5 6 7 0 12 12 12 26 0 20 3 24 13 16 10 -8 13 -6 13 8 0 10 -3 17
-6 15 -4 -2 -6 12 -6 30 1 19 4 35 8 35 4 0 3 11 -2 24 -6 17 -5 26 3 30 7 2
4 5 -6 5 -14 1 -17 6 -12 22 5 16 4 19 -6 14 -9 -6 -11 -3 -6 8 4 10 2 17 -4
17 -6 0 -9 7 -6 14 4 11 1 13 -10 9 -10 -4 -14 -2 -9 5 3 6 2 13 -4 17 -6 4
-7 12 -4 18 4 7 4 9 -1 5 -4 -4 -14 0 -22 8 -8 8 -20 11 -26 7 -7 -3 -9 -3 -5
2 10 10 -26 36 -44 32 -7 -2 -10 -2 -5 0 18 11 4 21 -30 22 -21 0 -48 3 -60 5
-13 3 -23 0 -23 -6 0 -7 -4 -7 -13 0 -7 6 -18 7 -26 2z m57 -128 c10 9 16 8
23 -3 5 -8 9 -10 9 -5 0 5 8 2 17 -5 14 -12 16 -12 8 0 -5 9 1 7 16 -4 31 -23
69 -72 48 -61 -11 6 -10 4 1 -6 20 -18 23 -111 3 -104 -8 3 -11 2 -8 -3 7 -12
-35 -61 -55 -64 -8 -2 -20 -6 -27 -10 -6 -4 -15 -3 -18 3 -5 8 -11 8 -20 0 -8
-6 -16 -7 -19 -2 -3 5 -17 8 -30 7 -19 -2 -23 1 -19 13 5 11 2 14 -10 9 -11
-4 -17 -1 -17 8 0 8 -7 15 -17 15 -9 0 -13 3 -10 7 4 3 1 13 -6 21 -10 13 -9
14 1 8 10 -6 9 1 -3 24 -10 19 -12 29 -5 25 9 -5 10 -1 5 14 -4 13 -2 21 5 21
6 0 9 4 5 9 -3 5 -1 12 5 16 6 4 7 11 4 17 -5 7 -1 9 9 5 10 -4 16 -2 14 5 -1
7 4 12 11 13 6 0 12 4 11 10 -1 13 34 24 45 14 6 -5 16 -3 24 3z"/>
<path d="M1210 2888 c0 -5 -4 -6 -10 -3 -5 3 -10 2 -10 -3 0 -5 -9 -19 -20
-32 -11 -12 -17 -27 -14 -31 3 -5 1 -9 -4 -9 -6 0 -9 -8 -8 -17 0 -10 -4 -17
-11 -16 -7 2 -10 -4 -7 -12 4 -8 1 -15 -4 -15 -6 0 -9 -9 -7 -20 3 -14 -2 -20
-13 -20 -15 0 -15 -2 -2 -10 11 -7 11 -10 2 -10 -7 0 -11 -4 -8 -9 4 -5 0 -12
-6 -14 -7 -3 -5 -6 6 -6 11 -1 16 -4 13 -7 -11 -12 13 -43 28 -38 8 4 15 1 15
-6 0 -6 5 -8 12 -4 8 5 9 2 5 -10 -5 -14 -3 -15 13 -6 24 13 33 13 25 0 -3 -5
1 -10 11 -10 9 0 23 -8 31 -17 8 -10 11 -12 7 -4 -5 10 -3 12 7 5 8 -5 19 -9
24 -9 6 -1 9 -7 7 -14 -1 -7 2 -10 8 -6 5 3 10 1 10 -6 0 -8 4 -8 15 1 10 9
15 9 15 1 0 -6 7 -11 15 -11 8 0 15 -4 15 -10 0 -5 11 -10 24 -10 13 0 26 -5
28 -11 2 -6 15 -12 30 -12 14 -1 24 -6 20 -11 -3 -5 4 -7 16 -4 12 3 21 3 20
-1 -3 -27 2 -33 19 -20 9 8 14 9 10 3 -4 -7 0 -15 9 -18 8 -3 12 -2 9 4 -3 6
-1 10 4 10 6 0 11 -6 11 -14 0 -8 5 -18 12 -22 8 -5 9 -2 4 11 -6 18 -6 18 12
2 10 -9 24 -17 32 -17 7 0 18 -8 25 -17 13 -17 50 -29 39 -12 -3 5 0 9 5 9 6
0 11 -3 11 -8 0 -4 10 -13 21 -21 19 -11 21 -11 16 3 -4 9 -3 15 1 14 17 -3
42 15 42 31 0 9 5 22 11 28 6 6 11 18 13 27 1 9 11 23 22 31 13 10 15 14 5 15
-12 0 -11 3 1 18 9 9 14 25 13 35 -2 9 1 15 6 11 5 -3 9 4 9 15 0 22 -33 61
-51 61 -5 0 -8 4 -5 9 3 5 -7 8 -23 7 -17 -1 -28 2 -25 6 10 16 -7 29 -22 17
-9 -7 -14 -8 -14 -1 0 6 -9 9 -21 7 -15 -3 -19 0 -15 11 3 8 0 14 -7 13 -23
-3 -36 1 -51 17 -10 9 -16 11 -16 4 0 -7 -7 -5 -16 4 -8 9 -20 14 -25 11 -5
-4 -9 -2 -9 3 0 5 -17 13 -37 18 -24 6 -37 15 -35 24 3 11 0 11 -12 0 -14 -11
-20 -7 -17 12 0 3 -11 5 -24 4 -13 -2 -32 4 -43 13 -18 16 -32 22 -64 24 -11
1 -14 5 -8 12 7 8 5 12 -5 12 -8 0 -15 -5 -15 -11 0 -5 -9 0 -20 12 -12 12
-24 22 -28 23 -43 5 -52 4 -52 -3z"/>
<path d="M542 2192 c6 -7 7 -12 2 -11 -22 6 -53 -12 -47 -28 4 -11 2 -14 -5
-9 -7 4 -12 1 -12 -8 0 -9 -4 -16 -8 -16 -5 0 -9 -7 -10 -15 -1 -8 -3 -22 -4
-30 -1 -8 -5 -15 -10 -15 -4 0 -7 -3 -6 -7 0 -5 -2 -16 -7 -27 -5 -11 -3 -26
4 -38 7 -12 8 -17 2 -13 -16 9 -14 -4 3 -20 7 -8 16 -11 20 -8 3 4 6 -1 6 -10
0 -9 3 -16 8 -16 19 3 33 -2 27 -11 -4 -6 7 -10 25 -10 21 0 29 -4 24 -12 -5
-8 -2 -9 10 -5 14 6 17 3 12 -8 -4 -11 -2 -14 7 -8 18 11 38 13 31 2 -5 -8 9
-13 29 -10 4 0 7 -3 7 -8 0 -5 7 -12 16 -15 10 -4 13 -2 8 6 -5 7 -3 8 7 2 14
-9 17 -10 42 -13 6 -2 3 -6 -8 -10 -17 -7 -17 -8 7 -13 15 -3 25 -2 23 3 -3 4
9 0 27 -8 40 -19 51 -29 23 -20 -17 6 -18 5 -5 -5 18 -15 20 -35 5 -46 -5 -4
-10 -13 -11 -19 -2 -30 -5 -34 -16 -27 -8 5 -7 0 2 -11 9 -11 10 -16 3 -11
-12 7 -14 4 -17 -43 -1 -8 -7 -16 -14 -19 -6 -2 -10 -8 -6 -13 3 -5 0 -9 -7
-9 -7 0 -9 -3 -6 -7 4 -3 0 -15 -10 -25 -9 -10 -13 -21 -10 -25 4 -3 7 -1 7 5
0 7 6 12 13 12 6 -1 2 -9 -11 -19 -15 -13 -18 -21 -10 -24 10 -4 10 -6 1 -6
-7 -1 -13 -8 -13 -16 0 -8 -5 -15 -11 -15 -5 0 -8 -4 -4 -9 3 -5 1 -12 -5 -16
-6 -4 -8 -10 -5 -15 7 -11 -5 -41 -15 -35 -4 3 -11 -2 -14 -11 -3 -8 -2 -12 4
-9 5 3 3 -9 -5 -27 -8 -18 -18 -32 -22 -31 -5 1 -8 -11 -7 -25 2 -35 -6 -48
-18 -31 -7 11 -8 11 -7 -1 4 -25 -13 -90 -22 -90 -5 0 -9 -9 -9 -21 0 -11 -4
-18 -9 -15 -4 3 -8 -4 -7 -17 1 -14 -4 -21 -13 -19 -12 3 -12 0 -1 -12 10 -13
10 -16 0 -16 -8 0 -10 -3 -7 -7 4 -3 -1 -12 -11 -20 -9 -8 -11 -12 -5 -8 9 4
11 1 7 -9 -3 -9 -9 -14 -13 -11 -4 2 -7 -9 -6 -25 1 -16 -2 -27 -7 -24 -7 5
-12 -13 -11 -43 1 -7 -3 -10 -8 -7 -5 3 -9 -2 -9 -10 0 -9 -4 -16 -10 -16 -5
0 -6 -7 -3 -17 5 -12 3 -14 -7 -8 -10 6 -12 2 -8 -18 3 -15 1 -24 -3 -21 -5 3
-9 -4 -9 -15 0 -12 -5 -21 -11 -21 -6 0 -9 -7 -5 -15 3 -8 0 -15 -6 -15 -7 0
-6 -5 2 -15 11 -13 10 -14 -4 -9 -11 4 -16 0 -17 -15 -1 -12 -3 -25 -4 -31 -1
-5 -3 -13 -4 -17 -1 -5 -6 -1 -12 7 -8 12 -9 11 -5 -5 3 -11 1 -27 -4 -35 -5
-8 -10 -11 -10 -6 0 6 -7 1 -16 -10 -8 -10 -13 -12 -9 -4 4 8 -2 4 -13 -9 -15
-18 -21 -21 -25 -10 -4 10 -6 10 -6 2 -1 -7 -8 -13 -17 -13 -8 0 -13 -4 -10
-9 3 -5 -9 -20 -26 -35 -18 -14 -26 -26 -18 -26 8 0 5 -7 -8 -18 -16 -14 -18
-22 -10 -30 8 -8 7 -13 -5 -18 -9 -3 -14 -10 -11 -15 3 -6 0 -17 -8 -26 -8
-10 -8 -14 -1 -10 8 5 11 -1 9 -20 -2 -16 1 -33 6 -40 5 -7 5 -14 -1 -18 -7
-4 -5 -14 5 -30 9 -13 16 -28 17 -32 1 -4 5 -7 8 -6 4 1 6 -5 5 -15 0 -9 4
-16 11 -15 8 2 10 -4 6 -14 -4 -9 -2 -14 3 -11 11 7 35 -17 27 -26 -4 -3 4 -6
16 -6 12 0 19 -4 16 -10 -3 -6 1 -10 9 -10 9 0 16 -4 16 -8 0 -7 20 -11 68
-13 12 -1 22 -7 22 -15 0 -19 10 -18 27 4 8 9 12 12 9 5 -4 -6 -2 -14 4 -18 5
-3 10 -2 10 4 0 11 18 9 40 -4 9 -5 6 1 -5 15 l-20 23 23 -12 c15 -8 22 -8 22
-1 0 6 4 9 9 5 6 -3 23 7 40 22 16 16 41 36 55 46 15 10 24 22 21 27 -3 4 2
10 10 14 8 3 15 12 15 20 0 7 8 17 17 20 12 5 14 9 5 18 -13 13 -16 32 -4 25
4 -3 6 11 6 31 -1 21 -2 56 -3 80 0 24 -5 41 -10 38 -4 -3 -13 5 -19 19 -8 18
-8 25 1 29 7 2 4 5 -6 5 -10 1 -16 5 -13 10 4 5 0 12 -6 14 -8 3 -6 6 4 6 11
1 15 6 12 16 -4 8 -1 15 5 15 6 0 10 3 9 8 -3 16 15 41 26 35 6 -4 5 1 -3 10
-11 13 -11 17 -1 17 8 0 10 3 7 7 -4 3 -1 13 6 21 10 13 9 14 -3 7 -8 -4 -5 2
8 14 15 15 21 29 17 42 -5 15 -3 17 11 12 11 -4 15 -3 10 5 -3 6 -2 13 4 17 6
4 8 10 5 15 -3 5 6 30 20 55 14 26 21 44 15 40 -5 -3 -10 -1 -10 4 0 11 15 15
34 12 5 -1 4 5 -4 13 -8 10 -9 16 -2 16 6 0 9 6 6 14 -3 7 2 16 10 19 9 4 13
13 10 22 -3 8 -1 15 6 15 6 0 9 3 6 8 -2 4 4 25 14 47 10 22 16 43 14 47 -3 5
-1 8 4 8 6 0 15 14 21 30 5 17 8 30 5 30 -2 0 6 10 17 21 17 17 19 23 8 30
-10 6 -11 9 -1 9 6 0 12 7 12 15 0 8 5 15 11 15 5 0 8 4 4 9 -3 5 0 13 6 17 8
4 7 9 -2 15 -10 6 -11 9 -1 9 6 0 12 7 12 16 0 8 4 13 8 10 5 -3 9 0 10 7 0 7
3 21 6 32 2 11 5 24 5 28 1 5 6 5 13 1 6 -4 8 -3 5 3 -4 6 2 27 13 47 10 21
22 51 25 67 4 17 11 26 18 22 6 -4 8 0 4 10 -4 10 -1 17 6 17 8 0 6 4 -3 10
-11 7 -11 10 -2 10 7 0 10 5 7 10 -3 6 -2 10 3 10 6 0 15 14 21 30 5 17 8 30
5 30 -3 0 2 7 10 16 9 8 14 19 11 24 -3 5 -1 11 5 15 6 4 8 11 5 16 -4 5 -1 9
5 9 6 0 8 4 5 10 -3 5 1 19 9 31 8 12 12 27 9 35 -3 8 2 17 11 20 12 5 14 10
6 19 -8 9 -6 14 6 19 13 5 14 9 4 21 -6 8 -8 20 -4 26 4 7 3 9 -4 5 -13 -8
-35 28 -24 39 4 3 0 5 -8 3 -8 -1 -14 3 -12 10 2 10 -2 10 -18 2 -16 -9 -22
-8 -27 5 -5 13 -7 14 -14 3 -7 -10 -9 -10 -9 2 0 9 -8 16 -17 16 -28 1 -46 8
-62 22 -7 7 -20 11 -27 8 -8 -3 -14 -1 -14 4 0 6 -3 9 -7 9 -20 -3 -26 2 -13
11 9 6 10 10 3 10 -6 0 -15 -5 -18 -11 -5 -6 -12 -4 -22 8 -8 10 -11 11 -7 3
7 -12 5 -13 -8 -3 -8 7 -19 9 -23 5 -5 -4 -5 -2 -2 4 8 14 -9 22 -40 19 -12
-1 -20 2 -18 6 7 10 -25 20 -37 12 -6 -3 -8 -1 -4 5 3 6 2 13 -4 17 -5 3 -10
0 -10 -7 0 -10 -2 -10 -9 1 -5 7 -13 11 -19 7 -5 -3 -12 1 -16 9 -3 9 -12 12
-22 8 -12 -4 -15 -3 -10 5 5 8 -1 12 -18 12 -14 0 -26 4 -26 9 0 5 -18 11 -39
13 -32 3 -38 1 -29 -10z m-116 -1683 c-5 8 0 8 19 1 40 -15 66 -36 57 -45 -4
-4 1 -5 11 -2 11 4 16 3 12 -3 -3 -6 -2 -10 4 -10 6 0 7 -7 4 -17 -4 -10 -2
-14 4 -10 6 4 13 0 17 -8 3 -8 0 -15 -7 -15 -8 0 -6 -4 3 -10 8 -5 10 -10 4
-10 -5 0 -9 -14 -8 -30 1 -19 -4 -34 -14 -40 -10 -5 -13 -10 -9 -10 5 0 1 -7
-7 -16 -9 -8 -13 -21 -9 -27 3 -7 3 -9 -2 -5 -4 4 -15 2 -23 -5 -13 -10 -14
-9 -7 2 6 11 2 10 -16 -2 -26 -19 -43 -22 -34 -7 8 13 -27 0 -38 -14 -5 -7 -7
-4 -3 7 5 15 2 17 -14 12 -11 -4 -20 -3 -20 2 0 5 -10 13 -22 18 -14 6 -23 18
-22 32 0 12 -4 21 -10 20 -5 -1 -10 3 -11 8 0 6 -4 16 -8 23 -5 7 -4 12 3 12
7 0 8 6 2 16 -10 18 18 87 40 100 10 6 10 4 3 -7 -5 -8 1 -3 15 11 14 14 21
19 15 11 -8 -12 -7 -12 13 -2 12 6 22 16 22 22 0 6 8 5 21 -2 15 -8 19 -8 15
0z"/>
<path d="M310 291 c0 -6 4 -13 10 -16 6 -3 7 1 4 9 -7 18 -14 21 -14 7z"/>
<path d="M1513 2025 c0 -8 4 -12 9 -9 5 3 6 10 3 15 -9 13 -12 11 -12 -6z"/>
<path d="M2646 1963 c-6 -14 -5 -15 5 -6 7 7 10 15 7 18 -3 3 -9 -2 -12 -12z"/>
<path d="M2652 1945 c-17 -18 -33 -31 -36 -28 -3 3 -4 -4 -1 -15 2 -12 -3 -23
-11 -26 -9 -3 -12 -10 -9 -16 3 -5 3 -10 -2 -10 -4 0 -9 -12 -10 -26 0 -15 -7
-30 -15 -35 -7 -5 -9 -9 -4 -9 6 0 5 -5 -2 -12 -7 -7 -12 -20 -12 -29 0 -10
-5 -21 -12 -25 -7 -5 -8 -3 -3 6 5 9 4 11 -4 6 -9 -6 -9 -11 0 -22 9 -11 9
-14 -1 -14 -7 0 -10 -7 -6 -15 3 -9 0 -15 -9 -15 -7 0 -17 -5 -21 -12 -5 -8
-2 -9 11 -4 18 6 18 6 2 -12 -9 -10 -17 -26 -17 -36 0 -9 -7 -19 -16 -23 -12
-4 -13 -7 -3 -14 11 -6 10 -9 -4 -15 -9 -3 -17 -10 -17 -16 0 -5 6 -6 13 -3 6
4 4 0 -5 -8 -10 -8 -15 -17 -11 -20 3 -4 0 -7 -7 -7 -7 0 -10 -3 -7 -7 4 -3 0
-17 -9 -31 -11 -17 -12 -22 -3 -17 8 5 6 -1 -4 -12 -9 -11 -14 -23 -10 -26 3
-4 1 -7 -6 -7 -7 0 -10 -4 -6 -9 3 -6 -3 -14 -12 -20 -10 -6 -13 -11 -6 -11 8
0 9 -9 3 -30 -5 -17 -5 -28 0 -25 4 2 10 -5 14 -18 5 -18 8 -20 16 -7 8 13 10
13 10 -2 0 -9 4 -20 10 -23 6 -4 7 1 3 12 -5 15 -2 14 15 -4 14 -13 29 -19 42
-16 15 4 20 1 20 -13 0 -16 2 -17 10 -4 8 12 10 12 10 -5 0 -17 2 -17 10 -5 5
8 10 10 10 4 0 -16 69 -16 93 1 12 8 17 15 12 15 -5 0 0 7 11 16 10 8 13 13 7
9 -9 -4 -11 -1 -7 9 3 9 11 16 16 16 6 0 8 7 4 15 -3 8 -1 15 4 15 5 0 6 8 3
17 -5 12 -2 15 9 11 11 -5 14 0 12 18 -1 13 4 31 13 39 8 8 11 15 7 15 -3 0
-2 6 4 13 10 12 12 17 12 38 0 5 4 8 9 5 5 -4 8 2 7 11 -2 10 4 24 13 31 13
11 13 12 1 7 -10 -4 -10 -2 2 8 13 10 14 17 6 25 -8 8 -7 13 5 17 9 4 13 13
10 22 -5 12 -3 14 7 8 10 -6 12 -4 7 8 -3 9 1 18 10 21 9 4 13 14 10 26 -3 14
0 20 10 20 10 0 14 6 10 20 -3 11 -1 20 5 20 6 0 8 7 4 15 -3 8 -1 15 4 15 6
0 10 7 10 16 0 9 5 12 12 8 8 -5 9 -2 5 11 -4 9 -2 24 4 31 6 7 8 18 4 24 -3
5 -1 10 5 10 6 0 8 5 5 10 -4 6 -11 8 -16 5 -5 -4 -6 2 -2 11 5 14 3 16 -12
10 -11 -4 -16 -4 -12 0 9 10 -30 37 -43 29 -6 -3 -10 -1 -10 4 0 6 -7 11 -15
11 -8 0 -15 5 -15 11 0 8 -4 8 -14 0 -11 -10 -17 -7 -30 11 -9 12 -16 19 -16
14 0 -5 -11 -1 -24 8 -24 15 -26 14 -54 -19z"/>
<path d="M506 1833 c2 -7 -1 -13 -6 -13 -6 0 -10 4 -10 10 0 5 -11 9 -25 8
-14 -1 -25 -6 -25 -11 0 -4 -4 -6 -9 -2 -6 3 -8 -4 -6 -16 3 -16 1 -18 -9 -10
-10 8 -12 3 -11 -23 0 -20 -3 -32 -9 -29 -5 4 -7 -1 -3 -11 4 -9 3 -15 -2 -12
-5 3 -15 -2 -22 -11 -10 -12 -10 -14 -1 -9 7 4 12 1 12 -9 0 -9 -4 -14 -9 -10
-6 3 -13 -10 -17 -30 -3 -19 -9 -33 -13 -31 -3 2 -7 -7 -8 -21 0 -14 -6 -29
-13 -33 -6 -4 -12 -11 -12 -16 -1 -5 -7 -22 -14 -39 -7 -16 -10 -33 -8 -37 3
-5 1 -8 -5 -8 -5 0 -8 -11 -7 -24 3 -19 -1 -24 -16 -21 -16 4 -18 2 -8 -10 10
-12 10 -15 0 -15 -8 0 -10 -3 -7 -7 4 -3 2 -12 -4 -20 -9 -10 -8 -13 2 -14 8
0 6 -4 -5 -8 -11 -4 -20 -19 -22 -36 -2 -17 -8 -31 -14 -33 -5 -2 -10 -14 -10
-27 0 -13 -5 -27 -11 -31 -8 -4 -7 -9 2 -15 11 -7 10 -9 -5 -9 -15 0 -16 -3
-6 -15 6 -8 8 -20 4 -27 -4 -7 -4 -10 1 -6 5 5 14 -1 22 -12 8 -11 19 -20 25
-20 7 0 3 7 -8 16 -10 8 -12 12 -4 8 8 -4 23 -14 33 -22 13 -12 17 -12 17 -2
0 10 4 8 13 -4 7 -9 22 -18 35 -19 12 0 22 -4 22 -8 0 -4 7 -10 16 -13 10 -4
13 -2 9 7 -4 6 0 4 8 -6 10 -12 17 -14 22 -8 8 14 25 14 25 0 0 -5 -5 -7 -12
-3 -7 5 -8 3 -3 -5 5 -9 13 -6 28 11 12 13 28 29 37 36 13 12 13 12 0 6 -13
-7 -13 -5 -2 9 8 9 11 21 7 27 -3 5 1 10 9 10 10 0 13 6 9 17 -4 11 -3 14 5 9
7 -4 12 -2 12 3 0 6 -6 11 -12 11 -8 0 -6 5 4 11 11 6 15 16 11 26 -4 10 -2
14 4 10 6 -4 14 0 17 9 4 10 2 13 -7 8 -8 -6 -8 -3 1 9 8 9 10 22 6 28 -5 9
-2 10 10 6 14 -6 16 -3 11 13 -4 13 -2 20 6 20 7 0 9 3 6 7 -4 3 1 15 10 26
13 15 14 18 3 12 -13 -8 -13 -7 0 10 8 10 14 26 12 36 -2 9 2 21 9 25 8 5 10
3 4 -7 -5 -8 -4 -10 0 -6 5 4 10 15 11 24 6 42 15 63 24 58 6 -3 7 1 4 9 -3 9
-1 16 6 16 6 0 8 5 5 10 -3 6 1 17 10 26 9 9 14 23 11 30 -3 8 -1 14 4 14 5 0
7 7 4 15 -4 8 -1 15 6 15 6 0 8 5 5 10 -3 6 -2 10 4 10 5 0 8 15 7 33 -2 23
-8 32 -20 31 -10 -1 -15 0 -12 3 9 10 -24 35 -39 29 -8 -3 -15 -1 -15 5 0 6
-6 9 -14 6 -8 -3 -17 1 -20 9 -3 9 -10 12 -16 9 -5 -3 -10 -1 -10 4 0 6 -6 10
-12 9 -7 -2 -12 3 -10 10 1 8 -2 11 -7 8 -5 -4 -11 -3 -14 1 -2 5 -2 2 -1 -4z"/>
<path d="M1163 1164 c-5 -13 -7 -13 -14 -2 -6 10 -9 8 -9 -7 0 -15 -2 -17 -9
-6 -7 11 -12 10 -28 -6 -11 -11 -17 -25 -15 -31 2 -7 -2 -12 -8 -12 -7 0 -10
-7 -6 -16 3 -8 2 -13 -3 -10 -10 7 -23 -22 -16 -34 3 -5 -4 -14 -15 -20 -11
-6 -18 -15 -15 -20 8 -13 -6 -41 -17 -34 -6 4 -5 -4 2 -16 10 -18 9 -21 -1
-15 -9 6 -11 3 -6 -8 3 -10 2 -17 -3 -17 -6 0 -10 -7 -10 -15 0 -8 -6 -13 -12
-11 -7 1 -10 1 -5 -1 12 -7 8 -25 -10 -46 -13 -15 -14 -18 -3 -12 12 7 13 6 3
-7 -7 -8 -9 -19 -5 -23 4 -5 2 -5 -4 -2 -13 8 -27 -20 -18 -34 3 -5 0 -9 -6
-9 -6 0 -8 -5 -4 -12 5 -8 2 -9 -11 -4 -15 5 -16 4 -5 -9 9 -11 9 -15 1 -15
-7 0 -9 -4 -6 -10 3 -5 0 -10 -7 -10 -9 0 -9 -3 2 -10 13 -8 12 -10 -4 -10
-11 0 -16 -3 -13 -7 4 -3 1 -13 -6 -21 -10 -13 -9 -14 3 -7 12 7 13 6 3 -7 -7
-8 -9 -19 -5 -23 4 -5 1 -5 -5 -1 -7 4 -13 4 -14 -1 0 -4 -2 -18 -5 -31 -2
-14 0 -21 6 -17 6 3 7 0 4 -9 -7 -18 33 -79 47 -71 5 4 9 1 9 -4 0 -6 7 -11
15 -11 8 0 15 -4 15 -9 0 -6 9 -8 20 -6 11 2 19 -1 17 -8 -1 -7 10 -12 24 -13
14 -1 31 -4 36 -7 6 -4 13 -1 16 7 3 8 16 12 32 10 15 -1 24 0 21 3 -3 4 3 12
14 20 12 8 17 20 13 30 -4 9 -2 14 3 10 6 -3 10 6 10 21 -1 17 4 26 12 24 8
-1 11 6 8 23 -3 14 -1 23 5 20 5 -4 9 3 9 15 0 13 4 19 12 14 7 -4 8 -3 4 5
-10 15 3 53 15 46 5 -4 9 -1 9 4 0 6 -6 11 -12 11 -7 0 -2 9 12 20 17 13 20
20 10 20 -13 0 -13 1 0 10 8 5 11 10 6 10 -5 0 -1 9 8 19 10 11 16 24 13 28
-3 5 5 10 19 11 13 1 24 -3 24 -9 0 -5 4 -8 9 -4 5 3 12 1 16 -5 4 -6 11 -7
17 -4 6 4 8 2 5 -3 -4 -6 0 -14 9 -17 10 -4 13 -2 9 7 -4 6 1 3 9 -7 9 -11 16
-14 16 -8 0 10 3 10 14 0 8 -7 13 -15 11 -18 -2 -3 10 -6 26 -7 20 -2 27 2 23
9 -4 7 -3 8 5 4 6 -4 9 -11 7 -15 -3 -4 4 -13 16 -20 16 -10 19 -10 12 1 -6
10 -5 11 8 1 8 -7 17 -10 21 -7 3 3 11 -3 18 -15 10 -14 17 -17 25 -10 9 7 16
4 24 -10 6 -12 16 -21 23 -21 7 0 6 4 -3 10 -8 5 -10 10 -4 10 6 0 17 -6 24
-14 6 -8 18 -12 25 -10 7 3 23 -4 34 -15 13 -13 21 -16 21 -8 0 9 2 9 8 0 4
-7 19 -14 32 -16 13 -2 27 -12 31 -23 7 -18 8 -18 8 1 1 18 4 16 24 -9 16 -19
26 -25 31 -18 5 9 12 9 26 0 10 -7 17 -14 15 -18 -2 -3 11 -6 28 -7 18 -2 33
-7 35 -13 2 -5 10 -10 18 -10 9 0 13 -4 10 -8 -3 -5 1 -9 9 -9 8 0 11 5 8 11
-3 6 0 5 8 -1 7 -7 21 -13 31 -13 10 0 18 -7 18 -15 0 -8 6 -12 13 -9 8 3 19
-2 26 -10 7 -8 19 -12 27 -9 8 3 14 -1 14 -8 0 -11 3 -11 10 1 6 9 10 10 10 3
0 -6 10 -13 23 -15 12 -2 21 -9 19 -16 -1 -8 2 -11 8 -7 6 4 18 1 27 -7 12 -9
15 -9 9 0 -4 6 -2 12 3 12 6 0 11 -7 11 -16 0 -8 5 -12 10 -9 6 3 10 0 10 -7
0 -9 3 -9 10 2 7 11 10 11 10 2 0 -7 5 -10 10 -7 6 3 10 -1 10 -11 0 -13 3
-14 15 -4 14 11 19 7 16 -12 0 -4 5 -5 12 -2 7 2 21 -3 32 -12 11 -8 13 -12 5
-8 -13 7 -13 5 -2 -9 8 -9 10 -22 6 -28 -4 -8 -3 -9 4 -5 7 4 12 1 12 -9 0 -9
7 -23 15 -32 8 -8 13 -19 10 -24 -4 -5 1 -9 10 -9 9 0 14 -4 11 -9 -3 -5 1
-11 9 -15 9 -3 12 -12 9 -23 -3 -10 -2 -14 3 -8 11 14 36 18 28 5 -3 -5 1 -10
9 -10 9 0 16 -7 16 -16 0 -14 3 -14 16 -4 12 11 15 11 12 0 -2 -7 3 -15 11
-18 9 -3 11 0 6 8 -6 9 -4 11 5 5 7 -5 25 -9 39 -11 14 -1 37 -5 49 -8 17 -4
22 -1 19 8 -3 7 1 13 9 13 9 0 13 -7 9 -16 -3 -11 0 -10 10 3 8 11 15 14 15 8
0 -7 5 -12 11 -12 5 0 7 5 4 10 -3 6 3 10 14 10 12 0 21 6 21 13 0 8 4 7 10
-3 8 -13 10 -12 10 3 0 10 11 22 25 27 14 5 25 13 24 17 -3 20 2 34 11 28 6
-3 10 1 10 9 0 9 9 25 20 36 11 11 15 20 9 20 -6 0 -7 5 -2 13 4 6 8 22 9 34
0 12 7 29 14 38 7 9 9 15 4 14 -23 -4 -26 2 -8 16 16 12 16 14 3 15 -9 0 -16
8 -16 18 0 27 -14 62 -25 62 -5 0 -7 4 -4 9 3 4 -2 17 -10 27 -9 10 -12 13 -8
5 5 -10 3 -12 -5 -6 -7 4 -11 16 -8 26 3 11 1 16 -4 13 -5 -3 -12 2 -15 10 -3
9 -12 16 -20 16 -8 0 -14 3 -14 8 0 4 -11 12 -25 19 -19 8 -23 8 -18 0 3 -7
-7 -1 -23 13 -15 14 -22 17 -15 7 12 -15 12 -17 -3 -11 -9 3 -16 10 -16 15 0
4 -7 6 -15 3 -8 -4 -12 -11 -8 -17 3 -6 1 -7 -6 -3 -6 4 -9 11 -6 16 3 5 -3 8
-14 7 -11 0 -17 -5 -15 -9 3 -4 -9 -8 -26 -8 -17 0 -29 -4 -26 -9 3 -4 -6 -7
-19 -5 -14 1 -25 -3 -25 -8 0 -6 -10 -3 -22 8 -13 12 -18 13 -13 4 5 -9 -1 -7
-15 5 -15 13 -21 15 -16 5 6 -12 5 -11 -6 1 -7 9 -25 15 -39 15 -19 -1 -26 3
-24 14 2 11 -7 16 -32 17 -20 1 -41 7 -47 14 -8 9 -7 10 4 4 8 -5 12 -4 8 0
-5 5 -20 10 -35 11 -15 2 -29 8 -31 14 -3 8 -8 7 -18 -1 -11 -9 -14 -8 -14 6
0 11 -5 15 -15 11 -8 -3 -15 -1 -15 4 0 6 -6 9 -12 7 -7 -1 -12 4 -10 12 3 12
0 12 -12 1 -9 -7 -16 -9 -16 -4 0 5 -19 17 -43 28 -23 10 -50 23 -61 28 -12 6
-16 6 -12 -1 4 -7 1 -8 -8 -5 -9 3 -16 11 -16 16 0 6 -9 8 -20 5 -13 -3 -18
-1 -13 6 4 7 0 8 -11 4 -10 -4 -15 -3 -11 3 3 6 1 10 -5 10 -6 0 -8 5 -4 13 5
8 2 8 -9 -2 -10 -8 -17 -9 -17 -3 0 6 -9 9 -20 7 -11 -2 -23 1 -26 7 -5 7 -2
8 6 3 9 -6 11 -4 6 4 -5 7 -14 10 -22 7 -8 -3 -14 -1 -14 4 0 6 -5 10 -11 10
-5 0 -7 -6 -3 -12 5 -7 -7 0 -25 15 -28 23 -36 26 -49 15 -9 -7 -13 -8 -10 -3
3 6 0 16 -8 23 -11 10 -14 10 -14 0 0 -10 -2 -10 -9 1 -5 8 -14 10 -21 6 -9
-6 -11 -4 -5 5 6 10 4 12 -8 7 -12 -4 -17 -1 -17 11 0 15 -2 15 -10 2 -7 -11
-10 -11 -10 -2 0 7 -4 10 -10 7 -5 -3 -10 -1 -10 5 0 7 -7 9 -15 6 -9 -3 -18
0 -21 8 -3 7 -10 13 -17 14 -7 1 -23 3 -36 5 -13 2 -27 11 -33 20 -7 14 -13
15 -29 6 -17 -9 -21 -7 -25 8 -3 11 -15 20 -32 21 -14 1 -28 6 -32 11 -3 6
-25 14 -49 20 -23 5 -46 13 -49 17 -4 4 1 4 11 1 12 -4 16 -3 11 4 -3 6 -15 9
-25 6 -11 -3 -19 -1 -19 5 0 6 -6 8 -14 5 -8 -3 -17 0 -20 8 -2 7 -16 12 -30
11 -14 -2 -24 0 -21 3 2 4 -5 12 -16 19 -16 10 -21 10 -26 -4z m22 -4 c3 -5 1
-10 -4 -10 -6 0 -11 5 -11 10 0 6 2 10 4 10 3 0 8 -4 11 -10z m940 -398 c-3
-3 -11 0 -18 7 -9 10 -8 11 6 5 10 -3 15 -9 12 -12z m569 -268 c12 -12 16 -12
17 -2 0 10 2 10 6 1 2 -7 13 -13 24 -13 11 0 19 -7 19 -16 0 -8 5 -12 11 -9 6
4 13 -2 16 -14 3 -12 10 -21 15 -21 6 0 6 -6 -1 -14 -8 -9 -8 -16 -2 -20 5 -4
9 -20 9 -36 -1 -17 -5 -27 -11 -23 -6 3 -7 1 -3 -5 10 -16 -44 -84 -61 -78 -8
3 -11 2 -8 -3 3 -5 1 -12 -5 -16 -5 -3 -10 -1 -10 5 0 6 -5 8 -12 3 -18 -11
-58 -12 -58 -1 0 5 -4 7 -9 3 -5 -3 -16 2 -24 10 -12 11 -17 12 -21 2 -4 -6
-4 -2 -2 11 2 12 1 20 -4 17 -4 -2 -15 4 -25 15 -20 22 -29 117 -12 127 6 4 7
1 2 -7 -5 -9 -4 -11 4 -6 7 4 10 13 8 19 -4 14 24 48 35 41 5 -3 7 0 6 7 -2 7
6 13 17 13 11 0 26 6 33 13 18 17 27 16 46 -3z m-1554 -18 c0 -3 -4 -8 -10
-11 -5 -3 -10 -1 -10 4 0 6 5 11 10 11 6 0 10 -2 10 -4z m990 -26 c0 -5 -2
-10 -4 -10 -3 0 -8 5 -11 10 -3 6 -1 10 4 10 6 0 11 -4 11 -10z m670 -170 c0
-5 -5 -10 -11 -10 -5 0 -7 5 -4 10 3 6 8 10 11 10 2 0 4 -4 4 -10z"/>
<path d="M1320 690 c-1 -8 -2 -18 -1 -22 0 -5 -5 -7 -11 -5 -7 1 -12 -6 -12
-15 1 -10 -3 -18 -9 -18 -6 0 -8 -3 -4 -6 3 -4 0 -13 -8 -20 -8 -8 -12 -21 -9
-29 4 -8 -1 -18 -10 -21 -9 -3 -13 -10 -10 -15 3 -5 1 -9 -5 -9 -6 0 -8 -6 -5
-14 3 -7 -2 -20 -10 -29 -8 -8 -12 -17 -9 -21 4 -3 0 -6 -8 -6 -10 -1 -8 -5 5
-15 15 -11 16 -15 5 -16 -8 0 -4 -4 9 -9 12 -5 22 -15 22 -21 0 -8 5 -8 16 1
13 11 16 10 21 -9 4 -17 8 -19 14 -9 7 10 9 8 9 -6 0 -15 3 -16 15 -6 12 10
16 9 21 -4 3 -9 10 -13 15 -10 5 3 9 1 9 -4 0 -6 7 -13 16 -16 15 -6 15 -4 3
11 -7 10 -1 7 13 -6 15 -12 31 -20 37 -16 6 3 11 -2 11 -12 0 -15 2 -16 10 -3
8 12 10 12 10 1 0 -8 3 -12 6 -8 4 3 19 0 35 -8 15 -8 37 -16 47 -18 11 -1 27
-11 36 -20 20 -19 31 -23 20 -6 -3 6 5 4 18 -5 14 -9 28 -13 31 -9 4 3 7 1 7
-5 0 -7 9 -12 21 -12 13 0 18 -4 13 -12 -4 -6 -3 -8 4 -4 6 3 16 1 24 -6 7 -7
27 -14 43 -16 17 -2 32 -8 33 -13 2 -5 8 -7 13 -3 5 3 9 0 9 -7 0 -7 3 -9 7
-6 3 4 13 1 21 -6 13 -10 14 -9 7 2 -6 11 -3 13 13 9 12 -3 21 -3 20 1 -2 18
3 32 11 27 5 -3 12 1 15 10 4 10 2 13 -7 9 -6 -4 -4 0 5 8 10 8 15 16 12 19
-2 3 6 26 20 52 13 25 21 44 17 42 -4 -3 -8 1 -8 9 0 8 5 13 11 12 6 -1 10 6
8 17 -2 12 1 15 8 11 9 -5 8 0 -1 16 -7 13 -12 26 -11 29 1 3 -6 5 -16 5 -9 0
-18 6 -18 13 -3 23 -4 24 -19 12 -13 -11 -19 -7 -17 11 1 4 -8 5 -18 2 -13 -3
-20 0 -20 8 0 11 -2 11 -10 -1 -8 -13 -10 -13 -10 2 0 11 -6 15 -20 11 -12 -3
-20 0 -20 7 0 7 -7 10 -15 7 -8 -4 -17 -1 -21 5 -5 7 -2 8 6 3 9 -6 11 -4 5 4
-4 7 -18 11 -31 8 -17 -3 -24 0 -25 12 0 10 -2 11 -6 4 -3 -10 -7 -10 -18 0
-7 7 -11 16 -8 20 3 5 -4 4 -16 -2 -11 -7 -21 -8 -21 -3 0 6 -9 12 -21 15 -12
3 -19 9 -16 14 3 5 -7 8 -21 7 -15 0 -33 5 -40 13 -8 7 -18 11 -23 8 -5 -4 -9
-1 -9 5 0 6 -4 8 -10 5 -5 -3 -10 1 -10 11 0 13 -3 14 -15 4 -12 -10 -15 -9
-16 6 0 11 -3 14 -5 7 -3 -7 -12 -9 -20 -6 -7 3 -12 9 -9 14 3 4 -3 6 -15 4
-11 -2 -19 -1 -19 3 3 19 -3 22 -22 11 -12 -6 -19 -7 -15 -1 3 5 -2 16 -11 23
-12 10 -14 10 -9 2 4 -8 2 -13 -8 -13 -8 0 -17 6 -19 13 -4 8 -6 8 -7 -3z"/>
<path d="M1071 414 c0 -11 3 -14 6 -6 3 7 2 16 -1 19 -3 4 -6 -2 -5 -13z"/>
</g>
</svg>
